<?xml version="1.0" encoding="utf-8"?>
<!-- Generator: Adobe Illustrator 26.5.0, SVG Export Plug-In . SVG Version: 6.00 Build 0)  -->
<svg version="1.1" id="Capa_1" xmlns="http://www.w3.org/2000/svg" xmlns:xlink="http://www.w3.org/1999/xlink" x="0px" y="0px"
	 viewBox="0 0 1024 446" style="enable-background:new 0 0 1024 446;" xml:space="preserve">
<style type="text/css">
	.st0{fill:#211915;}
	.st1{font-family:'Merriweather-Black';}
	.st2{font-size:34px;}
	.st3{font-family:'Merriweather-Regular';}
	.st4{font-size:32.4128px;}
	.st5{font-size:26px;}
</style>
<text transform="matrix(1 0 0 1 20.93 285.4887)"><tspan x="0" y="0" class="st0 st1 st2">Línea 119E</tspan><tspan x="180.4" y="0" class="st0 st3 st4"> </tspan><tspan x="0" y="40" class="st0 st3 st5">Extensión: 42 km </tspan><tspan x="0" y="80" class="st0 st3 st5">Paradas: 153 paradas</tspan><tspan x="0" y="120" class="st0 st3 st5">Recorrido: 118 minutos.</tspan></text>
<text transform="matrix(1 0 0 1 400.5431 282.662)"><tspan x="0" y="0" class="st0 st1 st2">Línea 103</tspan><tspan x="161.6" y="0" class="st0 st3 st4"> </tspan><tspan x="0" y="40" class="st0 st3 st5">Paradas: 47 paradas </tspan><tspan x="0" y="80" class="st0 st3 st5">Recorrido: 120 minutos. </tspan></text>
<text transform="matrix(1 0 0 1 774.5033 285.4887)"><tspan x="0" y="0" class="st0 st1 st2">Línea 102</tspan><tspan x="163" y="0" class="st0 st3 st4"> </tspan><tspan x="0" y="40" class="st0 st3 st5">Paradas: 107</tspan><tspan x="0" y="80" class="st0 st3 st5">Recorrido: 221 min.</tspan></text>
<image style="overflow:visible;" width="194" height="217" xlink:href="90DEDCD510386910.jpg"  transform="matrix(1 0 0 1 -2 13.1858)">
</image>
<image style="overflow:visible;" width="194" height="217" xlink:href="90DEDCD510386913.jpg"  transform="matrix(1 0 0 1 371 13.1858)">
</image>
<image style="overflow:visible;" width="194" height="217" xlink:href="90DEDCD510386916.jpg"  transform="matrix(1 0 0 1 746 13.1858)">
</image>
</svg>
