<?xml version="1.0" encoding="utf-8"?>
<!-- Generator: Adobe Illustrator 26.5.0, SVG Export Plug-In . SVG Version: 6.00 Build 0)  -->
<svg version="1.1" id="Capa_1" xmlns="http://www.w3.org/2000/svg" xmlns:xlink="http://www.w3.org/1999/xlink" x="0px" y="0px"
	 viewBox="0 0 1013.6 759.1" style="enable-background:new 0 0 1013.6 759.1;" xml:space="preserve">
<style type="text/css">
	.st0{fill:#FFFFFF;}
	.st1{fill:#211915;}
	.st2{font-family:'AlegreyaSans-Regular';}
	.st3{font-size:28.7931px;}
	.st4{font-family:'Merriweather-Bold';}
	.st5{font-size:40px;}
	.st6{fill:none;}
	.st7{font-family:'Merriweather-Regular';}
	.st8{font-size:24px;}
</style>
<g id="LtsAvA_00000096055437792980254120000002111010455366416306_">
	
		<image style="overflow:visible;" width="1240" height="801" id="LtsAvA_00000101066897339483131360000013432813941559554485_" xlink:href="A6572CAFA2CCF894.jpg"  transform="matrix(0.7649 0 0 0.7649 65.16 125.0528)">
	</image>
</g>
<rect x="852.3" y="165.9" class="st0" width="161.3" height="34.5"/>
<g>
	<text transform="matrix(1 0 0 1 863.3251 194.3496)" class="st1 st2 st3">Batería</text>
</g>
<rect x="15.6" y="552.8" class="st0" width="161.3" height="34.5"/>
<g>
	<text transform="matrix(1 0 0 1 63.6225 559.5522)"><tspan x="0" y="0" class="st1 st2 st3">Celda de</tspan><tspan x="-43.3" y="28.8" class="st1 st2 st3">combustible</tspan></text>
</g>
<rect x="39.5" y="594.7" class="st0" width="161.3" height="34.5"/>
<g>
	<text transform="matrix(1 0 0 1 124.8637 623.2339)" class="st1 st2 st3">Motor</text>
</g>
<rect x="102.5" y="636.7" class="st0" width="161.3" height="34.5"/>
<g>
	<text transform="matrix(1 0 0 1 132.5654 665.2241)" class="st1 st2 st3">Engranajes</text>
</g>
<rect x="852.3" y="210.8" class="st0" width="161.3" height="34.5"/>
<g>
	<text transform="matrix(1 0 0 1 863.3251 239.334)"><tspan x="0" y="0" class="st1 st2 st3">Tanque de</tspan><tspan x="0" y="28.8" class="st1 st2 st3">hidrógeno</tspan></text>
</g>
<g>
	<text transform="matrix(1 0 0 1 14.1161 53.3999)" class="st1 st4 st5">Fuel cell electric vehicles</text>
</g>
<g>
	<rect x="14.1" y="84.9" class="st6" width="486.4" height="204.7"/>
	<text transform="matrix(1 0 0 1 14.1152 104.5415)"><tspan x="0" y="0" class="st1 st7 st8">Las baterías tienen una densidad de </tspan><tspan x="0" y="36" class="st1 st7 st8">energía de alrededor de 1/40 de la </tspan><tspan x="0" y="72" class="st1 st7 st8">densidad de energía de un combustible </tspan><tspan x="0" y="108" class="st1 st7 st8">de hidrocarburo líquido, como la </tspan><tspan x="0" y="144" class="st1 st7 st8">gasolina o el diésel. </tspan></text>
</g>
</svg>
