<?xml version="1.0" encoding="utf-8"?>
<!-- Generator: Adobe Illustrator 26.5.0, SVG Export Plug-In . SVG Version: 6.00 Build 0)  -->
<svg version="1.1" id="Capa_1" xmlns="http://www.w3.org/2000/svg" xmlns:xlink="http://www.w3.org/1999/xlink" x="0px" y="0px"
	 viewBox="0 0 1024 446" style="enable-background:new 0 0 1024 446;" xml:space="preserve">
<style type="text/css">
	.st0{fill:none;}
	.st1{fill:#211915;}
	.st2{font-family:'Merriweather-Regular';}
	.st3{font-size:21px;}
	.st4{clip-path:url(#SVGID_00000049202783782498641900000003162756884677244346_);}
	.st5{clip-path:url(#SVGID_00000145763685858584910550000015608937296019879100_);}
	.st6{clip-path:url(#SVGID_00000031181056938146201960000014831824838660521129_);}
	.st7{font-size:18px;}
	.st8{font-size:20.6183px;}
	.st9{font-size:36.082px;}
	.st10{clip-path:url(#SVGID_00000049914931278492940070000008736382165019771529_);}
	.st11{fill-rule:evenodd;clip-rule:evenodd;fill:none;stroke:#211915;stroke-width:0.7732;stroke-miterlimit:10;}
</style>
<g>
	<rect x="15" y="27.9" class="st0" width="365" height="174.8"/>
	<text transform="matrix(1 0 0 1 14.9526 45.1375)"><tspan x="0" y="0" class="st1 st2 st3">El reemplazo de dichos buses a </tspan><tspan x="0" y="30" class="st1 st2 st3">combustión diésel por buses a </tspan><tspan x="0" y="60" class="st1 st2 st3">celdas de combustible a hidrógeno, </tspan><tspan x="0" y="90" class="st1 st2 st3">implicarían la reducción de 21 mil </tspan><tspan x="0" y="120" class="st1 st2 st3">toneladas de CO2.</tspan></text>
</g>
<g>
	<defs>
		<rect id="SVGID_1_" x="565.9" y="33.8" width="408.8" height="56.8"/>
	</defs>
	<clipPath id="SVGID_00000094602809257267447650000013137170934899860632_">
		<use xlink:href="#SVGID_1_"  style="overflow:visible;"/>
	</clipPath>
	<g style="clip-path:url(#SVGID_00000094602809257267447650000013137170934899860632_);">
		<defs>
			<rect id="SVGID_00000028303965459736594690000004435255104421815687_" x="565.9" y="-98.7" width="422.6" height="212.5"/>
		</defs>
		<clipPath id="SVGID_00000181808143058239052470000012833360382387531933_">
			<use xlink:href="#SVGID_00000028303965459736594690000004435255104421815687_"  style="overflow:visible;"/>
		</clipPath>
		<g style="clip-path:url(#SVGID_00000181808143058239052470000012833360382387531933_);">
			<defs>
				<rect id="SVGID_00000114779636069628837070000009517355832462923449_" x="565.9" y="-98.7" width="423.2" height="213.1"/>
			</defs>
			<clipPath id="SVGID_00000148631358270091706570000005219264392776308921_">
				<use xlink:href="#SVGID_00000114779636069628837070000009517355832462923449_"  style="overflow:visible;"/>
			</clipPath>
			<g style="clip-path:url(#SVGID_00000148631358270091706570000005219264392776308921_);">
				<defs>
					<rect id="SVGID_00000085238886695460848070000017586418880588168326_" x="565.9" y="-98.7" width="422.6" height="212.5"/>
				</defs>
				<clipPath id="SVGID_00000156564740705638769260000013765637455410730428_">
					<use xlink:href="#SVGID_00000085238886695460848070000017586418880588168326_"  style="overflow:visible;"/>
				</clipPath>
				
					<g transform="matrix(1 0 0 1 0 7.629395e-06)" style="clip-path:url(#SVGID_00000156564740705638769260000013765637455410730428_);">
					
						<image style="overflow:visible;" width="556" height="281" xlink:href="FBE9D570B3E6B4D2.jpg"  transform="matrix(0.76 0 0 0.7563 565.9042 -98.6796)">
					</image>
				</g>
			</g>
		</g>
	</g>
</g>
<text transform="matrix(1 0 0 1 47.6636 245.762)"><tspan x="0" y="0" class="st1 st2 st7">Consumo de díesel al año (en litros)</tspan><tspan x="49" y="51.5" class="st1 st2 st7">Consumo H2 por flota, kg/año</tspan><tspan x="8.6" y="103.1" class="st1 st2 st7">Potencia instalada requerida,  MW </tspan><tspan x="23.6" y="154.6" class="st1 st2 st7">Emisión de CO2 año, tonCO2/año</tspan></text>
<g>
	<text transform="matrix(1 0 0 1 419.8481 123.2395)"><tspan x="0" y="0" class="st1 st2 st8">Un auto</tspan><tspan x="-10.1" y="25.8" class="st1 st2 st8">compacto</tspan></text>
</g>
<g>
	<text transform="matrix(1 0 0 1 600.585 123.2395)"><tspan x="0" y="0" class="st1 st2 st9">118</tspan><tspan x="-1.5" y="25.8" class="st1 st2 st8">buses</tspan></text>
</g>
<g>
	<text transform="matrix(1 0 0 1 900.0918 123.2395)"><tspan x="0" y="0" class="st1 st2 st9">24</tspan><tspan x="-6.4" y="25.8" class="st1 st2 st8">buses</tspan></text>
</g>
<g>
	<text transform="matrix(1 0 0 1 752.3242 123.2395)"><tspan x="0" y="0" class="st1 st2 st9">59</tspan><tspan x="-6.2" y="25.8" class="st1 st2 st8">buses</tspan></text>
</g>
<g>
	<text transform="matrix(1 0 0 1 425.6426 245.762)" class="st1 st2 st7">1.300 lt </text>
</g>
<g>
	<text transform="matrix(1 0 0 1 581.2168 245.762)"><tspan x="0" y="0" class="st1 st2 st7">8 millones</tspan><tspan x="22.4" y="51.5" class="st1 st2 st7">4.853</tspan><tspan x="15.8" y="103.1" class="st1 st2 st7">30 MW</tspan><tspan x="18.8" y="154.6" class="st1 st2 st7">21.350</tspan></text>
</g>
<g>
	<text transform="matrix(1 0 0 1 876.1484 245.762)"><tspan x="0" y="0" class="st1 st2 st7">2 millones</tspan><tspan x="31.2" y="51.5" class="st1 st2 st7">971</tspan><tspan x="20.3" y="103.1" class="st1 st2 st7">6 MW</tspan><tspan x="21.7" y="154.6" class="st1 st2 st7">4.270</tspan></text>
</g>
<g>
	<text transform="matrix(1 0 0 1 728.1836 245.762)"><tspan x="0" y="0" class="st1 st2 st7">4 millones</tspan><tspan x="22.5" y="51.5" class="st1 st2 st7">2.427</tspan><tspan x="17.4" y="103.1" class="st1 st2 st7">15 MW</tspan><tspan x="18" y="154.6" class="st1 st2 st7">10.675</tspan></text>
</g>
<g>
	<defs>
		<rect id="SVGID_00000158012177543165463590000002726730128421840056_" x="430.8" y="48.3" width="48.4" height="42.3"/>
	</defs>
	<clipPath id="SVGID_00000163058554645508974060000003854954271932118914_">
		<use xlink:href="#SVGID_00000158012177543165463590000002726730128421840056_"  style="overflow:visible;"/>
	</clipPath>
	
		<g id="Pc1ur4_00000173158120709894575440000001819585666254473877_" style="clip-path:url(#SVGID_00000163058554645508974060000003854954271932118914_);">
		
			<image style="overflow:visible;" width="2000" height="1099" id="Pc1ur4_00000128466226460525598260000011176983937162012829_" xlink:href="FBE9D570B3E6B4D7.jpg"  transform="matrix(7.693264e-02 0 0 7.693264e-02 331.5015 48.3137)">
		</image>
	</g>
</g>
<line class="st11" x1="75.5" y1="266.9" x2="999.2" y2="266.9"/>
<line class="st11" x1="75.5" y1="317.4" x2="999.2" y2="317.4"/>
<line class="st11" x1="75.5" y1="368" x2="999.2" y2="368"/>
<line class="st11" x1="545.1" y1="41.4" x2="545.1" y2="418"/>
<line class="st11" x1="705.3" y1="41.4" x2="705.3" y2="418"/>
<line class="st11" x1="850.5" y1="41.4" x2="850.5" y2="418"/>
</svg>
